<?xml version="1.0" encoding="utf-8"?>
<svg viewBox="0.6 539.9 487.3 120.2" width="487.3" height="120.2" xmlns="http://www.w3.org/2000/svg">
  <g transform="matrix(1.311289, 0, 0, 1.100147, -0.186773, -54.229847)" style="fill:#ffffff;stroke:#ffffff" id="g14">
    <path d="m 47.994141,1.5996094 -0.07617,0.064453 c 0.02535,0.013868 0.05068,0.02726 0.07617,0.041016 z m -0.486329,0.4082031 -4.509765,3.7832031 c 1.264398,0.1921028 2.432045,0.7781646 3.509765,1.6484375 C 46.45058,6.411863 46.484451,5.3922677 46.738281,4.3945312 46.923531,3.6663638 47.295857,3.0298151 47.748047,2.4316406 47.662905,2.2835747 47.57688,2.1296214 47.507812,2.0078125 Z M 41.818359,6.78125 38.9375,9.1972656 C 40.065925,9.0693185 41.309301,8.926054 42.326172,8.8203125 42.009277,7.9876436 41.831354,7.2997405 41.818359,6.78125 Z m -8.982421,7.537109 -18.673829,15.666016 c -18.8825603,15.842124 -18.8825603,41.364907 0,57.207031 5.576154,4.678291 12.162276,7.963682 19.146485,9.878906 -0.350105,-0.606751 -0.563673,-1.50661 -0.576172,-2.841796 -5.26e-4,-0.05623 0.01259,-0.110321 0.02539,-0.164063 -1.198247,0.130502 -2.398844,0.23807 -3.517578,-0.132812 -1.589353,-0.5269 -2.675509,-2.013062 -4.013672,-3.019532 0.06419,-0.87391 -0.02639,-1.772333 0.191407,-2.621093 0.305017,-1.188649 1.23604,-3.175293 2.103515,-4.757813 -1.797026,-1.048198 -3.50766,-2.244371 -5.097656,-3.603515 -14.1619211,-11.881593 -14.1619211,-31.023984 0,-42.685547 l 15.978516,-13.40625 c 0.07718,-0.171915 0.178469,-0.426858 0.230468,-0.53125 0.03865,-0.0776 0.08944,-0.148556 0.13086,-0.22461 -1.184726,-0.0056 -2.369952,-0.01168 -3.554688,-0.01172 -0.640002,-2.1e-5 -1.335152,0.06325 -1.992187,0.06836 -0.741098,0.285572 -1.499205,0.607461 -1.806641,0.04883 -0.112337,-0.204125 -0.19374,-0.380937 -0.287109,-0.568359 -0.370152,-0.315067 -0.610537,-0.806189 -0.636719,-1.582032 v -0.002 c -0.285912,-1.043677 -0.132679,-1.692078 0.28711,-2.080078 0.03069,-0.123201 0.05173,-0.232833 0.08789,-0.363281 0.246511,-0.88938 1.833487,-0.219675 2.75,-0.328125 5.103144,-0.603848 6.545899,-0.774202 8.16211,-0.957031 -0.278958,-0.276821 -0.61232,-0.606567 -1.261719,-1.044922 -0.130784,-0.08828 0.132566,0.286657 0.199219,0.429687 -0.182304,0.0709 -0.351922,0.228891 -0.546876,0.212891 -2.033554,-0.16665 -3.095678,-0.663648 -4.996093,-1.392578 -0.51394,-0.19713 -1.091617,-0.28865 -1.527344,-0.625 -0.22151,-0.170992 -0.523325,-0.364707 -0.804687,-0.56836 z M 81.25,31.699219 c -0.325678,0.173863 -0.656829,0.338037 -0.980469,0.515625 -1.006108,0.552082 -2.000595,1.124565 -2.996093,1.695312 l -2.458985,2.0625 c 0.852233,-0.121059 1.70068,-0.180372 2.539063,-0.0957 0.92063,-0.353495 1.817071,-0.499535 2.625,-0.03125 0.574733,0.333116 0.74952,1.066773 0.675781,1.867188 0.283435,0.380409 0.490558,0.791688 0.609375,1.199218 0.119648,-0.244679 0.234701,-0.491839 0.36914,-0.728515 0.05248,-0.09239 0.127204,-0.276361 0.195313,-0.394532 0.131405,-0.83618 0.324659,-1.75466 0.248047,-1.230468 0.668443,-2.97009 -0.437036,2.085737 0.363281,-2.283203 0.07665,-0.41844 0.163123,-0.840258 0.318359,-1.236329 0.02887,-0.07364 0.06516,0.30261 0.07813,0.22461 0.02994,-0.179933 0.02064,-0.363417 0.0078,-0.546875 -0.411277,-0.21507 -0.836421,-0.407587 -1.205078,-0.6875 C 81.503722,31.926816 81.379644,31.809135 81.25,31.699219 Z m -0.976562,9.466797 c -0.727607,0.350364 -1.697669,0.394138 -2.673829,0.439453 0.555269,0.680815 1.086312,1.37057 1.56836,2.078125 0.08078,-0.239153 0.170379,-0.475514 0.25,-0.714844 0.409485,-0.85735 0.629142,-1.306461 0.855469,-1.802734 z m 3.912109,2.484375 c -0.07398,0.10153 -0.145917,0.204419 -0.224609,0.302734 0.02492,-0.01673 0.0439,-0.02138 0.04687,0.01172 0.02634,0.29294 -0.221399,0.545839 -0.332031,0.818359 -0.39374,1.24109 -0.832927,2.487661 -1.291015,3.707031 -0.05889,0.156759 -0.126514,0.310305 -0.191407,0.464844 0.03633,-0.05493 0.08028,-0.105415 0.113282,-0.162109 0.541723,-0.930742 0.761353,-1.334504 0.972656,-1.757813 0.213052,-0.905563 0.440875,-1.807311 0.691406,-2.703125 0.04273,-0.152801 0.155676,-0.483193 0.214844,-0.68164 z m 10.222656,4.355468 c -0.567789,0.102512 -1.194115,0.04509 -1.708984,0.300782 -0.394987,0.19613 0.90696,0.134694 1.322265,-0.01367 0.151438,-0.0541 0.271813,-0.165894 0.386719,-0.28711 z M 94.625,48.603516 c -0.08142,0.193839 -0.161544,0.388201 -0.242188,0.582031 -0.28141,1.33042 -1.240731,2.312664 -2.009765,3.371094 -0.169319,0.23303 -0.278516,0.508835 -0.464844,0.728515 -0.270967,0.319459 -0.478667,0.543837 -0.667969,0.736328 -0.01175,0.237866 -0.01798,0.406157 -0.0625,0.957032 -0.195681,-0.127778 -0.398818,-0.248072 -0.609375,-0.361328 -0.238569,0.191839 -0.458733,0.36433 -0.841797,0.662109 -0.05084,0.06614 -0.124901,0.12337 -0.185546,0.185547 -0.01578,0.03009 -0.02072,0.0494 -0.03711,0.08008 -0.01248,0.02336 -0.0326,0.03901 -0.04687,0.06055 -0.0037,0.01398 -0.01307,0.02587 -0.01367,0.04102 -0.0048,0.11835 0.274444,-0.339113 0.277344,-0.220703 0.0098,0.395121 -0.358531,0.792832 -0.861328,1.160157 -0.166301,0.470521 -0.339896,0.912188 -0.46875,1.039062 -6.35e-4,0.581394 -0.004,1.162735 -0.0039,1.744141 2.91e-4,0.06314 0.0018,0.126325 0.002,0.189453 0.0061,0.182899 0.16768,0.495705 0.0059,0.537109 -8.6e-5,0.04357 0.0021,0.0873 0.002,0.130859 -0.0015,0.07232 0.06841,0.217797 -0.0039,0.216797 -1.162915,-0.01645 -2.337463,-0.0049 -3.49414,-0.121093 -0.144615,0.0014 -0.288953,0.0039 -0.433594,0.0059 -0.251458,0.30229 -0.428644,0.511603 -0.671875,0.806641 -0.326997,3.342136 -1.320091,6.638747 -2.980469,9.746093 9.32e-4,0.0073 0.003,0.01618 0.0039,0.02344 0.05737,0.44901 -0.322953,0.80296 -0.671875,1.154297 -0.12505,0.20879 -0.243725,0.420189 -0.375,0.626953 -0.01614,0.09747 -0.0313,0.197701 -0.05078,0.285156 -0.137683,0.61813 -0.429169,1.191583 -0.644531,1.787109 -0.256122,-0.05023 -0.448967,-0.07079 -0.681641,-0.109374 -1.424712,1.878678 -3.115501,3.653878 -5.091797,5.28125 -4.26353,3.577021 -9.313274,6.068932 -14.666015,7.492187 -0.228658,1.186913 -1.381995,2.044614 -2.521485,2.660156 1.178536,3.539825 1.041344,3.42817 -1.169922,3.837891 -1.635416,0.109449 -3.27215,0.219388 -4.90625,0.380859 -0.196673,0.0319 -0.324579,0.04905 -0.539062,0.08398 -0.887186,0.14451 -1.771109,0.31221 -2.65625,0.46875 -0.124203,0.03151 -0.25539,0.05762 -0.380859,0.08789 -0.335738,0.49912 -0.748029,0.937044 -1.138672,0.847656 -0.343149,-0.07852 -0.666254,-0.212374 -0.982422,-0.365234 -0.406822,0.08992 -0.811741,0.180893 -1.212891,0.279297 -1.12079,0.439286 -2.190269,0.859341 -3.585937,1.404297 -0.916441,0.243258 -1.876236,0.577064 -2.785157,0.800781 C 52.537542,101.16266 69.817511,97.591267 81.955078,87.191406 94.452657,76.633352 98.670672,61.932387 94.625,48.603516 Z M 31.751953,85.648438 c -0.84007,1.430929 -1.521611,2.286574 -2.033203,4.349609 -0.08018,0.32332 0.09035,0.660104 0.134766,0.990234 0.27018,-0.48667 0.292497,-1.257297 0.810546,-1.460937 1.088281,-0.4278 2.335843,-0.124385 3.5,-0.234375 0.740879,-0.07 1.477945,-0.170385 2.216797,-0.259766 -0.0988,-0.06479 -0.196166,-0.133646 -0.296875,-0.191406 0.665654,-0.165719 1.036341,-0.272548 1.435547,-0.341797 0.07141,-0.291065 0.171425,-0.573715 0.304688,-0.845703 -2.07919,-0.50547 -4.11203,-1.175913 -6.072266,-2.005859 z" transform="matrix(0.7626084,0,0,0.90896902,0.59999998,540.04563)" style="fill:#ffffff;stroke:#ffffff;stroke-width:1.20109" id="path10"/>
    <path d="m 61.570312,23.523438 c -0.214041,-0.08142 0.248186,0.241677 0.275391,0.199218 -0.09179,-0.06638 -0.183604,-0.132836 -0.275391,-0.199218 z m -1.164062,1.148437 c -0.256707,0.0033 -0.425624,0.0065 -0.617188,0.0098 0.04245,0.149889 0.08724,0.299083 0.128907,0.449218 0.365505,-0.142644 0.730384,-0.286677 1.095703,-0.429687 -0.202573,-0.0081 -0.404985,-0.01969 -0.607422,-0.0293 z" transform="matrix(0.7626084,0,0,0.90896902,0.59999998,540.04563)" style="fill:#ffffff;stroke:#ffffff;stroke-width:1.20109" id="circle12"/>
  </g>
  <g transform="matrix(1, 0, 0, 1, -67.102089, 5.090503)" id="g32">
    <g id="g30">
      <path d="m 93.064453,48.179688 c -0.125683,0.03125 -0.248962,0.06921 -0.365234,0.126953 -0.177443,0.08811 0.008,0.119521 0.28125,0.11914 0.02825,-0.08181 0.0565,-0.163701 0.08398,-0.246093 z" transform="translate(67.702089,534.8095)" id="path16"/>
      <path d="m 110.16016,38.369141 c 0.0116,0.02221 0.0236,0.04421 0.0352,0.06641 0.0293,5.32e-4 0.0585,0.0014 0.0879,0.002 -0.0408,-0.02262 -0.0818,-0.04561 -0.12304,-0.06836 z m 3.15625,5.816406 c 0.14634,0.259501 0.29129,0.511298 0.4375,0.765625 l -0.19141,-0.50586 c -0.0807,-0.08748 -0.15894,-0.176905 -0.24609,-0.259765 z m 26.72656,22.236328 c -0.1121,0.04539 -0.22374,0.09152 -0.33594,0.136719 0.10747,-0.03239 0.21893,-0.03788 0.33203,-0.03125 0.002,-0.03533 0.002,-0.06989 0.004,-0.105469 z" transform="translate(67.702089,534.8095)" id="path18"/>
      <path d="m 145.69727,13.191406 v 7.798828 h 28.5 v 73.300782 h 8.40039 V 20.990234 h 28.30078 v -7.798828 z" transform="translate(67.702089,534.8095)" id="path20"/>
      <path id="path22" d="m 302.3,630.6 c -16.5,0 -28.5,-12.3 -28.5,-31.2 0,-18.9 12.6,-31.5 29.4,-31.5 16.8,0 28.5,12.3 28.5,31.2 -0.3,18.9 -12.9,31.5 -29.4,31.5 z m 0.3,-55.2 c -12.6,0 -20.7,9.9 -20.7,24 0,14.4 8.4,24.3 21,24.3 12.6,0 20.7,-9.9 20.7,-24 0,-14.7 -8.4,-24.3 -21,-24.3 z"/>
      <path id="path24" d="m 351.8,629.1 h -8.1 v -59.5 l 8.1,-1.8 v 12.6 c 3.9,-7.5 9.6,-12.6 17.4,-12.6 3.9,0 7.5,1.2 10.5,2.7 l -2.1,7.5 c -2.7,-1.5 -5.7,-2.7 -9,-2.7 -6.3,0 -12,4.8 -16.8,15.3 v 38.5 z"/>
      <path id="path26" d="m 411.3,630.6 c -18,0 -29.1,-12.9 -29.1,-31.2 0,-18.6 12.3,-31.5 29.1,-31.5 7.2,0 13.5,1.8 18.6,5.1 l -2.1,7.2 c -4.5,-3 -10.2,-4.8 -16.5,-4.8 -12.9,0 -20.7,9.6 -20.7,23.7 0,14.4 8.4,24 21,24 6,0 12,-1.8 16.5,-4.8 l 1.8,7.5 c -5.4,3 -11.7,4.8 -18.6,4.8 z"/>
      <path id="path28" d="m 479.5,629.1 v -38.5 c 0,-10.5 -4.2,-15 -12.6,-15 -6.9,0 -13.5,3.6 -18.3,8.4 v 45.1 h -8.1 v -87.4 l 8.1,-1.8 c 0,0 0,37.3 0,37.6 6.3,-6.3 14.1,-9.3 20.7,-9.3 11.4,0 18.6,7.5 18.6,20.4 v 40.6 h -8.4 z"/>
    </g>
  </g>
  <text id="text283" y="633.8429" x="86.213005" style="font-size: 105px; line-height: 1.25; font-family: sans-serif; fill: rgb(255, 102, 0); white-space: pre;"><tspan y="633.8429" x="86.213005" id="tspan281">k</tspan></text>
</svg>