<?xml version="1.0" encoding="UTF-8" standalone="no"?>
<svg
   xmlns:dc="http://purl.org/dc/elements/1.1/"
   xmlns:cc="http://creativecommons.org/ns#"
   xmlns:rdf="http://www.w3.org/1999/02/22-rdf-syntax-ns#"
   xmlns:svg="http://www.w3.org/2000/svg"
   xmlns="http://www.w3.org/2000/svg"
   xmlns:sodipodi="http://sodipodi.sourceforge.net/DTD/sodipodi-0.dtd"
   xmlns:inkscape="http://www.inkscape.org/namespaces/inkscape"
   inkscape:version="1.0 (4035a4f, 2020-05-01)"
   sodipodi:docname="logo-dark.svg"
   xml:space="preserve"
   enable-background="new 0.6 539.9 487.3 120.2"
   viewBox="0.6 539.9 487.3 120.2"
   y="0px"
   x="0px"
   id="Layer_1"
   version="1.1"><metadata
   id="metadata39"><rdf:RDF><cc:Work
       rdf:about=""><dc:format>image/svg+xml</dc:format><dc:type
         rdf:resource="http://purl.org/dc/dcmitype/StillImage" /><dc:title></dc:title></cc:Work></rdf:RDF></metadata><defs
   id="defs37" /><sodipodi:namedview
   inkscape:current-layer="Layer_1"
   inkscape:window-maximized="0"
   inkscape:window-y="23"
   inkscape:window-x="0"
   inkscape:cy="60.099998"
   inkscape:cx="243.64999"
   inkscape:zoom="2.6575006"
   showgrid="false"
   id="namedview35"
   inkscape:window-height="1395"
   inkscape:window-width="2560"
   inkscape:pageshadow="2"
   inkscape:pageopacity="0"
   guidetolerance="10"
   gridtolerance="10"
   objecttolerance="10"
   borderopacity="1"
   bordercolor="#666666"
   pagecolor="#ffffff"
   inkscape:document-rotation="0"
   inkscape:pagecheckerboard="true" />
<g
   transform="matrix(1.311289,0,0,1.1001475,-0.18677338,-54.229848)"
   style="fill:#ffffff;stroke:#ffffff"
   id="g14">
	<path
   id="path10"
   style="fill:#ffffff;stroke:#ffffff;stroke-width:1.20109"
   transform="matrix(0.7626084,0,0,0.90896902,0.59999998,540.04563)"
   d="m 79.587891,42.609375 c -0.04692,0.0084 -0.09603,0.017 -0.148438,0.02734 -0.14976,0.309849 -0.300351,0.629075 -0.498047,0.730469 0.03704,0.05242 0.07535,0.104104 0.113282,0.15625 0.06022,-0.01281 0.121302,-0.0209 0.18164,-0.0332 0.06138,-0.173592 0.123582,-0.346968 0.181641,-0.521484 0.08158,-0.170799 0.101859,-0.217379 0.169922,-0.359375 z m -0.44336,0.08203 c -0.236161,0.04458 -0.412461,0.06636 -0.61914,0.09961 0.06803,0.09092 0.130613,0.183963 0.197265,0.27539 0.163253,-0.06721 0.307684,-0.185006 0.421875,-0.375 z m 4.509766,2.748047 c -0.0525,0.05464 -0.101039,0.111003 -0.152344,0.173828 0.05006,-0.02285 0.103876,-0.04233 0.15625,-0.0625 0.0044,-0.01698 0.0093,-0.03381 0.01367,-0.05078 -0.0061,-0.02183 -0.01236,-0.04386 -0.01758,-0.06055 z m 11.203125,3.988281 c -0.0737,0.279601 -0.215143,0.534256 -0.367188,0.785157 -0.0065,0.215026 -0.02129,0.42495 -0.06445,0.611328 0.07072,0.02331 0.146765,0.03947 0.212891,0.07031 0.212632,0.09918 0.0061,0.469505 -0.01563,0.703125 -0.0058,0.06214 -0.02423,0.163899 -0.03125,0.230469 0.105533,0.145233 0.231643,0.308502 0.283203,0.40625 0.199658,0.37851 -0.558818,2.183702 -0.08008,0.982422 0.01545,0.28391 0.0414,0.30932 0.0332,0.744141 -0.0025,0.375129 -0.0066,0.388415 -0.002,0.546874 5.43e-4,0.0011 -5.21e-4,0.0028 0,0.0039 0.04985,0.107425 0.0181,0.250781 0.02148,0.375 7.54e-4,0.02744 -0.0023,0.03841 -0.002,0.06445 0.125037,0.293945 0.225756,0.602818 0.347656,0.894531 0.02961,0.07086 -0.0046,0.153869 -0.0098,0.230469 -8e-4,0.0127 -0.0031,0.04901 -0.0078,0.03711 -0.0376,-0.09573 -0.06261,-0.194969 -0.09375,-0.292969 0.121048,0.976978 0.156116,0.970593 0.0918,1.050782 0.265619,0.33612 0.466446,0.679701 0.392578,0.941406 0.0138,0.268976 0.0073,0.484821 -0.01367,0.701172 0.182216,0.80669 0.06744,1.501596 -0.320312,2.117187 -0.0046,0.148184 -0.0088,0.295815 -0.03906,0.445313 -0.270233,0.70987 -0.291475,0.833895 -0.36914,0.794922 7.02e-4,0.272643 0.0015,0.54586 -0.0098,0.818359 5e-4,0.06386 0.06512,0.183406 0.002,0.191406 -0.119031,0.01566 -0.193624,0.02088 -0.30664,0.03516 0.325755,0.07402 0.493307,0.229183 0.316406,0.55664 -0.0036,0.0066 -0.0062,0.01101 -0.0098,0.01758 -0.03276,0.105746 -0.06497,0.209852 -0.08594,0.296875 0.0056,0.04335 0.0087,0.08846 0.01953,0.128907 -0.04504,0.0162 -0.03962,-0.04551 -0.01953,-0.128907 -0.0051,-0.0394 -0.01246,-0.07781 -0.01758,-0.117187 -0.02973,0.05388 -0.05669,0.09631 -0.08594,0.148437 0.108253,0.118933 0.217082,0.238702 0.292969,0.378907 0.199332,0.368274 -0.125071,0.926093 -0.501953,1.404296 0.03605,0.244097 0.06985,0.509965 0.08203,0.835938 0.08342,0.208837 0.109769,0.275391 0.320312,0.742188 0.06068,0.134596 1.28e-4,0.295739 0.0039,0.443359 4.55e-4,0.01767 0.01104,0.04186 0.01563,0.0625 1.670638,-6.007808 1.678393,-12.256991 0.01758,-18.257813 z m -0.376953,0.138672 c 0.003,0.06267 0.0056,0.120067 0.0078,0.183594 0.04428,-0.0014 0.08853,-0.0025 0.132813,-0.0039 0.01635,-0.04215 0.09392,-0.113453 0.05078,-0.126953 -0.06313,-0.01981 -0.127983,-0.03385 -0.191406,-0.05273 z m -0.144531,0.910156 c -0.03767,0.06053 -0.07417,0.128363 -0.109376,0.1875 -0.01933,0.03251 -0.04996,0.07569 -0.08008,0.09766 0.06226,0.01253 0.129813,0.01633 0.189454,0.0332 0.0052,-0.01454 0.01476,-0.02838 0.01953,-0.04297 -0.02094,-0.07741 -0.01708,-0.17904 -0.01953,-0.275391 z m 0.158203,5.324219 c -0.0071,0.08949 -0.03547,0.175948 -0.05469,0.263672 0.167842,0.172689 0.372285,0.374063 0.574219,0.605469 -0.163954,-0.505104 -0.213693,-0.614906 -0.519531,-0.869141 z m 0.611328,1.179688 c -0.06986,0.114102 -0.165533,0.318821 -0.324219,0.917969 -0.08373,0.316115 0.391468,-0.570927 0.324219,-0.917969 z m -6.65625,1.382812 c -0.01952,0.06583 -0.04063,0.13141 -0.06055,0.197266 -2.23e-4,0.07292 -8.5e-5,0.145833 0,0.21875 0.02103,-0.138581 0.0398,-0.277439 0.06055,-0.416016 z m -2.583985,2.580078 c 0.360836,0.680783 0.752448,0.871097 1.125,0.798829 0.08007,-0.190062 0.172083,-0.380537 0.273438,-0.570313 -0.455213,0.04109 -0.938306,-0.04212 -1.398438,-0.228516 z m 2.185547,0.002 c -0.02766,0.01453 -0.05178,0.0357 -0.08008,0.04883 -0.05939,0.07072 -0.206724,0.248029 -0.261719,0.318359 0.128128,-0.120289 0.233086,-0.235506 0.341797,-0.367188 z m 5.921875,0.728516 c -0.0072,0.05318 -0.01287,0.08827 -0.01953,0.146484 -0.0054,0.04758 0.0091,-0.0659 0.0332,-0.146484 -0.0054,5.4e-4 -0.0081,-6.12e-4 -0.01367,0 z m 0.07813,0 c 0.01567,0.07488 -0.0051,0.166066 -0.002,0.246094 0.0023,0.04314 0.002,0.05509 0.0039,0.09375 0.106483,-0.114058 0.20024,-0.22854 0.279297,-0.339844 -0.07782,-0.0095 -0.179717,-0.0048 -0.28125,0 z m -0.382812,0.960938 c -0.03694,-0.0054 -0.09333,0.0055 -0.136719,0.0039 -0.0014,0.02215 -0.002,0.04386 -0.0039,0.06641 -0.0011,0.0039 -7.44e-4,0.0059 -0.002,0.0098 0.03476,0.04875 0.0635,0.101244 0.103515,0.146484 0.164385,-0.006 0.310233,-0.0031 0.453125,0.002 -0.07319,-0.07288 -0.12704,-0.117505 -0.189453,-0.177734 -0.05743,-0.01284 -0.12978,-0.03688 -0.224609,-0.05078 z m -7.003907,0.08398 c -0.09102,0.126816 -0.175134,0.241284 -0.277343,0.380859 0.05478,0.03411 0.109311,0.06721 0.164062,0.101563 0.03232,-0.161233 0.07131,-0.322349 0.113281,-0.482422 z m 7.509766,0.236328 c -0.138412,0.01667 -0.26999,0.03233 -0.398437,0.04687 0.06199,0.06136 0.123427,0.122663 0.189453,0.181641 0.153187,0.0091 0.302443,0.01736 0.466797,0.0293 -0.07534,-0.07938 -0.165635,-0.164475 -0.257813,-0.257813 z m -2.521484,3.884766 c -0.247549,-0.003 -0.491288,-0.0085 -0.791016,0.01563 -0.01113,0.261133 -0.02505,0.522213 -0.03906,0.783203 0.04631,-0.0068 0.09237,-0.01795 0.138672,-0.02539 -0.02571,-0.109931 -0.0817,-0.24944 0.0078,-0.257812 0.03375,-0.0031 0.05475,-0.0066 0.08789,-0.0098 -0.0052,-0.08107 -0.02014,-0.21752 0,-0.166015 0.02976,0.07608 0.02895,0.09516 0.05273,0.160156 0.295871,-0.02888 0.544287,-0.06034 0.792969,-0.0918 -0.07804,-0.143507 -0.165552,-0.27236 -0.25,-0.408203 z m -2.333985,3.322265 c -0.02668,0.04361 -0.05269,0.07966 -0.08008,0.128907 -0.02655,0.04775 0.02168,0.0079 0.08008,-0.05469 -3.7e-5,-0.02475 7.2e-5,-0.04947 0,-0.07422 z m 1.294922,6.416016 c -0.0903,0.02979 -0.297605,0.167553 -0.519531,0.333984 0.01794,0.05352 0.03666,0.106665 0.05469,0.160157 0.170005,-0.119443 0.332182,-0.24679 0.46289,-0.402344 0.0743,-0.08842 0.06468,-0.112557 0.002,-0.0918 z m -3.960937,4.148437 c -0.03058,0.0944 -0.06312,0.188305 -0.0918,0.283204 -0.01158,0.03573 -0.01811,0.03736 -0.0293,0.07031 0.01211,0.06324 0.02459,0.1263 0.03711,0.189453 -0.0044,0.05927 -0.0023,0.04254 -0.0059,0.08984 0.02254,-0.04356 0.05429,-0.08337 0.06641,-0.130859 0.0406,-0.159089 0.03947,-0.329382 0.02344,-0.501954 z M 55.587891,96.220703 c -0.165684,0.127393 -0.317431,0.242428 -0.494141,0.378906 0.19289,-0.08061 0.383567,-0.164876 0.576172,-0.246093 -0.03055,-0.04957 -0.05047,-0.08173 -0.08203,-0.132813 z" />
	<path
   id="circle12"
   style="fill:#ffffff;stroke:#ffffff;stroke-width:1.20109"
   transform="matrix(0.7626084,0,0,0.90896902,0.59999998,540.04563)"
   d="m 60.927734,24.697266 c -0.02664,0.02285 -0.05382,0.04515 -0.08008,0.06836 0.05526,-0.02168 0.110738,-0.04281 0.166016,-0.06445 -0.02866,-0.0011 -0.05729,-0.0026 -0.08594,-0.0039 z" />
</g>
<g
   transform="translate(-67.102089,5.0905033)"
   id="g32">
	<g
   id="g30">
		
		<path
   d="m 110.16016,38.369141 c 0.0116,0.02221 0.0236,0.04421 0.0352,0.06641 0.0293,5.32e-4 0.0585,0.0014 0.0879,0.002 -0.0408,-0.02262 -0.0818,-0.04561 -0.12304,-0.06836 z m 3.15625,5.816406 c 0.14634,0.259501 0.29129,0.511298 0.4375,0.765625 l -0.19141,-0.50586 c -0.0807,-0.08748 -0.15894,-0.176905 -0.24609,-0.259765 z m 26.72656,22.236328 c -0.1121,0.04539 -0.22374,0.09152 -0.33594,0.136719 0.10747,-0.03239 0.21893,-0.03788 0.33203,-0.03125 0.002,-0.03533 0.002,-0.06989 0.004,-0.105469 z"
   transform="translate(67.702089,534.8095)"
   id="path18" />
		<path
   d="m 145.69727,13.191406 v 7.798828 h 28.5 v 73.300782 h 8.40039 V 20.990234 h 28.30078 v -7.798828 z"
   transform="translate(67.702089,534.8095)"
   id="path20" />
		<path
   id="path22"
   d="m 302.3,630.6 c -16.5,0 -28.5,-12.3 -28.5,-31.2 0,-18.9 12.6,-31.5 29.4,-31.5 16.8,0 28.5,12.3 28.5,31.2 -0.3,18.9 -12.9,31.5 -29.4,31.5 z m 0.3,-55.2 c -12.6,0 -20.7,9.9 -20.7,24 0,14.4 8.4,24.3 21,24.3 12.6,0 20.7,-9.9 20.7,-24 0,-14.7 -8.4,-24.3 -21,-24.3 z" />
		<path
   id="path24"
   d="m 351.8,629.1 h -8.1 v -59.5 l 8.1,-1.8 v 12.6 c 3.9,-7.5 9.6,-12.6 17.4,-12.6 3.9,0 7.5,1.2 10.5,2.7 l -2.1,7.5 c -2.7,-1.5 -5.7,-2.7 -9,-2.7 -6.3,0 -12,4.8 -16.8,15.3 v 38.5 z" />
		<path
   id="path26"
   d="m 411.3,630.6 c -18,0 -29.1,-12.9 -29.1,-31.2 0,-18.6 12.3,-31.5 29.1,-31.5 7.2,0 13.5,1.8 18.6,5.1 l -2.1,7.2 c -4.5,-3 -10.2,-4.8 -16.5,-4.8 -12.9,0 -20.7,9.6 -20.7,23.7 0,14.4 8.4,24 21,24 6,0 12,-1.8 16.5,-4.8 l 1.8,7.5 c -5.4,3 -11.7,4.8 -18.6,4.8 z" />
		<path
   id="path28"
   d="m 479.5,629.1 v -38.5 c 0,-10.5 -4.2,-15 -12.6,-15 -6.9,0 -13.5,3.6 -18.3,8.4 v 45.1 h -8.1 v -87.4 l 8.1,-1.8 c 0,0 0,37.3 0,37.6 6.3,-6.3 14.1,-9.3 20.7,-9.3 11.4,0 18.6,7.5 18.6,20.4 v 40.6 h -8.4 z" />
	</g>
</g>
<text
   id="text43"
   y="593.58167"
   x="64.925453"
   style="font-style:normal;font-weight:normal;font-size:40px;line-height:1.25;font-family:sans-serif;fill:#000000;fill-opacity:1;stroke:none"
   xml:space="preserve"><tspan
     y="593.58167"
     x="64.925453"
     id="tspan41"
     sodipodi:role="line" /></text><text
   id="text127"
   y="563.96417"
   x="73.71814"
   style="font-size:85.3333px;line-height:1.25;font-family:sans-serif"
   xml:space="preserve"><tspan
     y="563.96417"
     x="73.71814"
     id="tspan125"
     sodipodi:role="line" /></text><text
   id="text131"
   y="636.61957"
   x="95.005699"
   style="font-size:85.3333px;line-height:1.25;font-family:sans-serif"
   xml:space="preserve"><tspan
     y="636.61957"
     x="95.005699"
     id="tspan129"
     sodipodi:role="line" /></text><text
   id="text135"
   y="614.65784"
   x="79.67437"
   style="font-size:96px;line-height:1.25;font-family:sans-serif"
   xml:space="preserve"><tspan
     y="614.65784"
     x="79.67437"
     id="tspan133"
     sodipodi:role="line" /></text><text
   id="text139"
   y="644.48669"
   x="79.271416"
   style="font-size:96px;line-height:1.25;font-family:sans-serif"
   xml:space="preserve"><tspan
     y="644.48669"
     x="79.271416"
     id="tspan137"
     sodipodi:role="line" /></text><text
   id="text143"
   y="626.90131"
   x="79.734184"
   style="font-size:96px;line-height:1.25;font-family:sans-serif"
   xml:space="preserve"><tspan
     y="626.90131"
     x="79.734184"
     id="tspan141"
     sodipodi:role="line" /></text><text
   id="text147"
   y="638.47064"
   x="90.377968"
   style="font-size:96px;line-height:1.25;font-family:sans-serif"
   xml:space="preserve"><tspan
     y="638.47064"
     x="90.377968"
     id="tspan145"
     sodipodi:role="line" /></text><text
   id="text151"
   y="629.67798"
   x="89.452423"
   style="font-size:96px;line-height:1.25;font-family:sans-serif"
   xml:space="preserve"><tspan
     y="629.67798"
     x="89.452423"
     id="tspan149"
     sodipodi:role="line" /></text><text
   id="text155"
   y="636.61957"
   x="88.526871"
   style="font-size:96px;line-height:1.25;font-family:sans-serif"
   xml:space="preserve"><tspan
     y="636.61957"
     x="88.526871"
     id="tspan153"
     sodipodi:role="line" /></text><text
   id="text159"
   y="632.91736"
   x="87.601326"
   style="font-style:normal;font-variant:normal;font-weight:bold;font-stretch:normal;font-size:96px;line-height:1.25;font-family:sans-serif;-inkscape-font-specification:'sans-serif Bold';"
   xml:space="preserve"><tspan
     y="632.91736"
     x="87.601326"
     id="tspan157"
     sodipodi:role="line" /></text><text
   id="text199"
   y="638.93341"
   x="89.915192"
   style="font-style:italic;font-size:96px;line-height:1.25;font-family:sans-serif;-inkscape-font-specification:'sans-serif Bold Italic';font-weight:bold;font-stretch:normal;font-variant:normal;"
   xml:space="preserve"><tspan
     y="638.93341"
     x="89.915192"
     id="tspan197"
     sodipodi:role="line" /></text><text
   id="text207"
   y="614.54846"
   x="78.992729"
   style="font-weight:bold;font-size:96px;line-height:1.25;font-family:sans-serif;-inkscape-font-specification:'sans-serif Bold'"
   xml:space="preserve"><tspan
     y="614.54846"
     x="78.992729"
     id="tspan205"
     sodipodi:role="line" /></text><text
   id="text211"
   y="633.8429"
   x="68.627632"
   style="font-weight:bold;font-size:192px;line-height:1.25;font-family:sans-serif;-inkscape-font-specification:'sans-serif Bold'"
   xml:space="preserve"><tspan
     y="633.8429"
     x="68.627632"
     id="tspan209"
     sodipodi:role="line" /></text><text
   id="text219"
   y="632.91736"
   x="88.064102"
   style="font-size:96px;line-height:1.25;font-family:sans-serif;-inkscape-font-specification:sans-serif"
   xml:space="preserve"><tspan
     y="632.91736"
     x="88.064102"
     id="tspan217"
     sodipodi:role="line" /></text><text
   id="text241"
   y="635.69403"
   x="84.824692"
   style="font-size:96px;line-height:1.25;font-family:sans-serif;-inkscape-font-specification:sans-serif"
   xml:space="preserve"><tspan
     y="635.69403"
     x="84.824692"
     id="tspan239"
     sodipodi:role="line" /></text><text
   id="text267"
   y="627.36407"
   x="90.840736"
   style="font-style:italic;font-size:96px;line-height:1.25;font-family:sans-serif;-inkscape-font-specification:'sans-serif Italic'"
   xml:space="preserve"><tspan
     y="627.36407"
     x="90.840736"
     id="tspan265"
     sodipodi:role="line" /></text><text
   id="text279"
   y="635.69403"
   x="91.303513"
   style="font-size:105px;line-height:1.25;font-family:sans-serif;-inkscape-font-specification:sans-serif"
   xml:space="preserve"><tspan
     y="635.69403"
     x="91.303513"
     id="tspan277"
     sodipodi:role="line" /></text><path
   id="text283"
   style="font-size:105px;line-height:1.25;font-family:sans-serif;-inkscape-font-specification:sans-serif;fill:#ff6600;"
   transform="translate(0.6,539.9)"
   d="m 95.507812,14.167969 v 43.230469 c 0.06438,0.149341 0.0932,0.29147 0.05859,0.414062 0.0138,0.268976 0.0073,0.484821 -0.01367,0.701172 0.124097,0.54939 0.0989,1.044048 -0.04492,1.5 v 33.929687 h 9.638668 V 74.820312 l 6.25586,-5.947265 22.96875,25.070312 h 12.71485 l -28.5586,-30.8125 26.60938,-26.455078 H 132.98633 L 105.14648,65.333984 V 14.167969 Z" /></svg>
